<mxfile host="app.diagrams.net" modified="2022-01-24T14:25:01.164Z" agent="5.0 (Macintosh; Intel Mac OS X 10_15_7) AppleWebKit/537.36 (KHTML, like Gecko) Chrome/97.0.4692.99 Safari/537.36" etag="n7ktDFMvRsvZcrMhWzPe" version="14.8.3" type="github">
  <diagram id="YxB7hUJdKk0LSNAA6PKi" name="Page-1">
    <mxGraphModel dx="652" dy="377" grid="1" gridSize="10" guides="1" tooltips="1" connect="1" arrows="1" fold="1" page="1" pageScale="1" pageWidth="827" pageHeight="1169" math="0" shadow="0">
      <root>
        <mxCell id="0" />
        <mxCell id="1" parent="0" />
        <mxCell id="GgtIPfDjZ8LWZBm1U8K7-1" value="" style="rounded=0;whiteSpace=wrap;html=1;" vertex="1" parent="1">
          <mxGeometry x="130" y="150" width="70" height="70" as="geometry" />
        </mxCell>
        <mxCell id="GgtIPfDjZ8LWZBm1U8K7-4" style="edgeStyle=orthogonalEdgeStyle;rounded=0;orthogonalLoop=1;jettySize=auto;html=1;exitX=1;exitY=0.5;exitDx=0;exitDy=0;entryX=0;entryY=0.5;entryDx=0;entryDy=0;" edge="1" parent="1" source="GgtIPfDjZ8LWZBm1U8K7-2" target="GgtIPfDjZ8LWZBm1U8K7-3">
          <mxGeometry relative="1" as="geometry" />
        </mxCell>
        <mxCell id="GgtIPfDjZ8LWZBm1U8K7-2" value="kafka" style="shape=process;whiteSpace=wrap;html=1;backgroundOutline=1;" vertex="1" parent="1">
          <mxGeometry x="310" y="200" width="120" height="60" as="geometry" />
        </mxCell>
        <mxCell id="GgtIPfDjZ8LWZBm1U8K7-6" style="edgeStyle=orthogonalEdgeStyle;rounded=0;orthogonalLoop=1;jettySize=auto;html=1;exitX=0.5;exitY=1;exitDx=0;exitDy=0;entryX=0.5;entryY=0;entryDx=0;entryDy=0;entryPerimeter=0;" edge="1" parent="1" source="GgtIPfDjZ8LWZBm1U8K7-3" target="GgtIPfDjZ8LWZBm1U8K7-5">
          <mxGeometry relative="1" as="geometry" />
        </mxCell>
        <mxCell id="GgtIPfDjZ8LWZBm1U8K7-3" value="logstash" style="whiteSpace=wrap;html=1;aspect=fixed;" vertex="1" parent="1">
          <mxGeometry x="500" y="190" width="80" height="80" as="geometry" />
        </mxCell>
        <mxCell id="GgtIPfDjZ8LWZBm1U8K7-5" value="mongo" style="shape=cylinder3;whiteSpace=wrap;html=1;boundedLbl=1;backgroundOutline=1;size=15;" vertex="1" parent="1">
          <mxGeometry x="510" y="330" width="60" height="80" as="geometry" />
        </mxCell>
      </root>
    </mxGraphModel>
  </diagram>
</mxfile>
